# xmcd
#
# Track frame offsets: 
#        150
#        13118
#        31250
#        40258
#        57068
#        72295
#        85693
#        101955
#        119820
#        135740
#
# Disc length: 1997 seconds
#
# Revision: 5
# Processed by: cddbd v1.5.2PL0 Copyright (c) Steve Scherf et al.
# Submitted via: ExactAudioCopy v1.0b3
#
DISCID=8807cb0a
DTITLE=Little Texas - First Time For Everything
DYEAR=1992
DGENRE=Country
TTITLE0=Some Guys Have All The Love
TTITLE1=First Time For Everything
TTITLE2=Down In The Valley
TTITLE3=You And Forever And Me
TTITLE4=What Where You Thinkin'
TTITLE5=Dance
TTITLE6=Better Way
TTITLE7=I'd Rather Miss You
TTITLE8=Just One More Night
TTITLE9=Cry On
EXTD=
EXTT0=
EXTT1=
EXTT2=
EXTT3=
EXTT4=
EXTT5=
EXTT6=
EXTT7=
EXTT8=
EXTT9=
PLAYORDER=
